<svg width="686" height="218" viewBox="0 0 686 218" fill="none" xmlns="http://www.w3.org/2000/svg">
<path d="M11 121.7L15.9 119.6L75.9 93.5L140.8 121.7L116.4 172.1L56.8 180.5L12 132.1L11 121.7Z" fill="#133444"/>
<path d="M127.301 90.6984C116.601 77.7984 101.401 69.3984 84.8008 67.1984C84.4008 67.1984 84.1008 67.0984 83.7008 67.0984C78.5008 66.4984 73.3008 66.4984 68.1008 67.0984C67.7008 67.0984 67.4008 67.1984 67.0008 67.1984C50.4008 69.3984 35.2008 77.7984 24.5008 90.6984L21.8008 95.1984L17.3008 102.698L14.0008 108.198C14.0008 108.398 13.9008 108.498 13.8008 108.598V108.698L21.0008 112.998L67.0008 140.198L75.9008 145.398V80.3984L67.0008 84.3984V74.6984L75.9008 70.6984L84.8008 74.6984L130.001 95.1984L127.301 90.6984Z" fill="#C42370"/>
<path d="M142.8 137.899C142.7 159.199 133.1 179.299 116.6 192.799C110.3 197.899 103.2 201.899 95.4996 204.499C89.1996 206.599 82.5996 207.699 75.9996 207.699C38.9996 207.699 9.09961 174.799 9.09961 137.899C9.09961 132.399 9.79961 126.999 11.0996 121.699L75.9996 160.099L140.9 121.699C142.1 126.999 142.8 132.399 142.8 137.899Z" fill="#1C4D6B"/>
<path d="M68.1 66.9977L75.9 70.5977L67 74.5977V66.5977L68.1 66.9977Z" fill="black"/>
<path d="M67 84.3969L75.9 80.2969V145.297L67 140.097V84.3969Z" fill="black"/>
<path d="M75.9004 80.2969V145.297L138.1 108.597L75.9004 80.2969Z" fill="#1D4259"/>
<path d="M75.9004 5.39844V80.2984L138.1 108.598L75.9004 5.39844Z" fill="#4B6B9A"/>
<path d="M75.9008 80.2969V145.297L67.0008 140.097L13.8008 108.597C13.8008 108.397 13.9008 108.297 14.0008 108.197L21.8008 95.2969L67.0008 74.7969V84.5969L75.9008 80.2969Z" fill="#343535"/>
<path d="M75.8992 80.2969V145.297L66.9992 140.097L13.7992 108.597H13.6992L13.7992 108.497L66.9992 84.3969L75.8992 80.2969Z" fill="#3E5578"/>
<path d="M75.8992 5.39844V80.2984L13.6992 108.598L75.8992 5.39844Z" fill="#6DB2D8"/>
<path d="M50.6992 202.398C51.5992 202.798 52.5992 203.198 53.4992 203.598C52.5992 203.198 51.6992 202.798 50.6992 202.398Z" fill="#335F8A"/>
<path d="M53.5 203.5C54.4 203.9 55.4 204.2 56.4 204.5C55.4 204.2 54.5 203.9 53.5 203.5Z" fill="#335F8A"/>
<path d="M58.9004 205.297C59.7004 205.497 60.4004 205.697 61.1004 205.897L58.9004 205.297Z" fill="#335F8A"/>
<path d="M11 121.699L75.9 160.099C75 165.899 73.5 171.599 71.2 177.099C66 189.699 55.5 202.899 35.2 192.799C18.7 179.299 9.1 159.099 9 137.799C9 132.399 9.7 126.999 11 121.699Z" fill="#6DB2D8"/>
<path d="M116.399 192.9C115.999 193.2 116.399 192.9 115.099 194L114.499 194.4L113.599 195L112.499 195.8C113.599 195 111.599 196.4 111.199 196.7C110.799 196.9 110.499 197.1 110.099 197.4L109.399 197.9C109.199 198 108.899 198.2 108.699 198.4C108.699 198.4 108.399 198.7 108.299 198.7C108.699 198.4 107.799 198.9 107.399 199.2C106.899 199.4 106.499 199.6 106.099 199.9L104.699 200.6L104.099 200.9C103.699 201.1 103.899 200.9 103.499 201.2C103.099 201.5 102.599 201.6 102.099 201.9C101.599 202.2 102.099 201.9 100.399 202.7C102.099 201.9 100.399 202.7 99.4992 203.1C100.399 202.7 97.8992 203.7 96.7992 204.1C96.3992 204.2 94.1992 204.9 93.7992 205C93.3992 205.1 92.8992 205.3 92.4992 205.4C91.6992 205.6 90.9992 205.8 90.2992 206C89.9992 206.1 89.6992 206.1 89.4992 206.2L88.9992 206.3L87.7992 206.6C87.3992 206.7 87.0992 206.7 86.6992 206.8C86.2992 206.9 85.9992 206.9 85.6992 207C85.3992 207.1 84.8992 207.1 84.5992 207.2C84.3992 207.2 84.1992 207.2 84.0992 207.3L83.2992 207.4H82.8992C82.5992 207.4 82.2992 207.5 81.9992 207.5C81.6992 207.5 81.1992 207.6 80.7992 207.6H70.5992C70.1992 207.6 69.7992 207.5 69.3992 207.5C69.0992 207.5 68.7992 207.5 68.4992 207.4H68.0992C67.7992 207.4 67.4992 207.3 67.2992 207.3C67.0992 207.3 66.8992 207.3 66.7992 207.2C66.3992 207.2 66.0992 207.1 65.6992 207C65.3992 207 64.9992 206.9 64.6992 206.8C64.3992 206.7 63.9992 206.7 63.5992 206.6L62.3992 206.3L61.8992 206.2C61.5992 206.2 61.2992 206.1 61.0992 206C60.2992 205.8 59.5992 205.6 58.8992 205.4L57.5992 205C57.1992 204.9 56.7992 204.8 56.3992 204.6C55.3992 204.3 54.4992 203.9 53.4992 203.6C52.4992 203.3 51.5992 202.8 50.6992 202.4C50.2992 202.2 49.7992 202 49.2992 201.8C48.7992 201.6 48.2992 201.4 47.8992 201.1C47.3992 200.9 46.9992 200.7 46.5992 200.4C46.1992 200.2 45.6992 199.9 45.2992 199.7C44.8992 199.5 44.5992 199.3 44.2992 199.1C43.2992 198.5 42.6992 198.1 43.2992 198.5L42.6992 198.1L41.5992 197.4L41.1992 197.2L40.1992 196.5C39.7992 196.2 39.3992 196 38.9992 195.7C38.5992 195.4 38.0992 195.1 37.6992 194.8C37.2992 194.5 36.8992 194.1 36.5992 193.9L36.1992 193.6C35.7992 193.4 35.4992 193.1 35.1992 192.8C55.4992 202.9 65.8992 189.5 71.0992 177C73.2992 171.5 74.8992 165.8 75.7992 160C76.6992 165.9 78.1992 171.7 80.4992 177.2C85.8992 189.6 96.0992 202.9 116.399 192.9Z" fill="#529BBA"/>
<path d="M90.6992 205.897C91.4992 205.697 92.1992 205.497 92.8992 205.297L90.6992 205.897Z" fill="#335F8A"/>
<path d="M95.4004 204.5C96.4004 204.2 97.3004 203.9 98.3004 203.5C97.3004 203.9 96.4004 204.2 95.4004 204.5Z" fill="#335F8A"/>
<path d="M98.0996 203.597C98.9996 203.197 100.2 202.797 101.1 202.297C100.1 202.797 98.9996 203.197 98.0996 203.597Z" fill="#335F8A"/>
<path d="M142.8 137.899C142.7 159.199 133.1 179.299 116.6 192.799C96.3004 202.899 85.8004 189.599 80.6004 177.099C78.4004 171.599 76.8004 165.899 75.9004 160.099L140.8 121.699C142.1 126.999 142.8 132.399 142.8 137.899Z" fill="#4B6B9A"/>
<path d="M214.4 205.699H192.4V58.7992H214.4V69.1992C223.1 60.4992 232.9 56.1992 243.9 56.1992C257 56.1992 267.8 60.9992 276.2 70.6992C284.8 80.2992 289.1 92.2992 289.1 106.899C289.1 121.199 284.8 132.999 276.3 142.499C268.3 151.699 256.5 156.899 244.3 156.699C233.2 156.699 223.2 152.199 214.4 143.299V205.699V205.699ZM266.7 106.899C266.7 97.7992 264.2 90.3992 259.3 84.5992C254.7 78.9992 247.7 75.7992 240.4 75.8992C232.3 75.8992 225.8 78.6992 220.8 84.2992C215.8 89.8992 213.3 97.2992 213.3 106.399C213.3 115.299 215.8 122.699 220.8 128.499C225.8 134.299 232.3 136.999 240.3 136.999C247.6 137.199 254.5 133.999 259.1 128.399C264.1 122.699 266.7 115.499 266.7 106.899Z" fill="#6DB2D8"/>
<path d="M307.9 105.699C307.7 92.4993 313 79.6993 322.6 70.5993C332.1 61.0993 345.1 55.8993 358.5 56.0993C372.7 56.0993 384.7 60.9993 394.6 70.6993C404.5 80.3993 409.2 92.2993 409.2 106.399C409.2 120.699 404.3 132.599 394.5 142.199C384.7 151.799 372.5 156.599 358.1 156.599C343.7 156.599 331.9 151.699 322.3 141.999C312.7 132.299 307.9 120.199 307.9 105.699ZM330.4 106.099C330.4 115.599 332.9 123.099 338 128.699C343.1 134.299 350.1 137.099 358.6 137.099C367.1 137.099 374.1 134.299 379.2 128.799C384.3 123.299 386.9 115.899 386.9 106.599C386.9 97.2993 384.3 89.9993 379.2 84.3993C374.1 78.7993 367.1 75.9993 358.6 75.9993C350.1 75.9993 343.4 78.7993 338.2 84.3993C333 89.9993 330.4 97.1993 330.4 106.099Z" fill="#6DB2D8"/>
<path d="M426.6 58.7997H448.6V67.2997C452.6 63.0997 456.2 60.1997 459.3 58.5997C462.8 56.8997 466.7 56.0997 470.6 56.1997C476.4 56.1997 482.4 58.0997 488.8 61.8997L478.7 81.9997C474.5 78.9997 470.5 77.4997 466.5 77.4997C454.5 77.4997 448.5 86.4997 448.5 104.6V153.9H426.5C426.5 153.9 426.6 58.7997 426.6 58.7997Z" fill="#6DB2D8"/>
<path d="M530.099 79.2984V153.898H508.099V79.2984H498.699V58.7984H508.099V23.8984H530.099V58.7984H547.199V79.2984H530.099Z" fill="#6DB2D8"/>
<path d="M558.8 19.2C558.8 15.4 560.3 11.8 563 9.2C568.6 3.6 577.7 3.6 583.3 9.2C586.1 11.8 587.6 15.5 587.5 19.3C587.6 23.1 586 26.8 583.3 29.5C580.7 32.3 577 33.8 573.2 33.7C569.4 33.8 565.7 32.2 563 29.5C560.2 26.8 558.7 23.1 558.8 19.2ZM584.1 58.8V153.9H562.1V58.8H584.1Z" fill="#6DB2D8"/>
<path d="M667.2 75.0011L649 84.7011C646.1 78.8011 642.6 75.9011 638.4 75.9011C636.5 75.9011 634.6 76.6011 633.2 77.9011C631.8 79.2011 631 81.1011 631.1 83.0011C631.1 86.6011 635.3 90.3011 643.8 93.8011C655.5 98.8011 663.3 103.401 667.3 107.701C671.3 112.001 673.4 117.601 673.4 124.801C673.6 133.601 669.8 142.001 663.2 147.801C656.7 153.701 648.2 156.801 639.4 156.601C623.4 156.601 612.2 148.801 605.5 133.301L624.3 124.601C626.9 129.201 628.9 132.101 630.3 133.301C632.9 135.701 636.3 137.101 639.9 137.001C647.3 137.001 651 133.601 651 126.801C651 122.901 648.1 119.201 642.4 115.901C640.2 114.801 638 113.701 635.8 112.701C633.6 111.701 631.3 110.601 629.1 109.501C622.7 106.401 618.2 103.301 615.6 100.101C612.3 96.1011 610.6 91.0011 610.6 84.8011C610.6 76.5011 613.4 69.7011 619.1 64.3011C624.8 58.9011 632.4 56.0011 640.2 56.2011C652.2 56.1011 661.2 62.4011 667.2 75.0011Z" fill="#6DB2D8"/>
<path d="M640.301 192.3H643.201V175H640.301V192.3Z" fill="white"/>
<path d="M643.201 169.902H640.301V172.802H643.201V169.902Z" fill="white"/>
<path d="M506.301 169.702C503.101 169.702 499.801 170.902 499.801 174.002C499.801 176.702 502.901 177.502 506.501 178.102C511.501 178.902 516.401 179.902 516.401 185.502C516.401 191.102 511.001 192.902 506.301 192.902C501.901 192.902 497.701 191.302 495.801 187.202L498.401 185.702C500.001 188.602 503.301 190.102 506.401 190.102C509.401 190.102 513.401 189.102 513.401 185.502C513.401 182.402 510.001 181.502 506.201 181.002C501.401 180.302 496.801 179.202 496.801 174.102C496.701 168.902 502.001 167.102 506.301 167.102C510.001 167.102 513.501 167.802 515.701 171.602L513.401 173.102C511.901 170.802 509.101 169.802 506.301 169.702Z" fill="white"/>
<path d="M521.601 167.602V177.802C523.101 175.502 525.401 174.702 527.701 174.702C532.601 174.702 535.001 178.002 535.001 182.802V192.402H532.101V182.802C532.101 179.402 530.301 177.402 527.101 177.402C523.901 177.402 521.601 179.902 521.601 183.102V192.402H518.701V167.602H521.601Z" fill="white"/>
<path d="M553 192.402L552.9 189.202C551.5 191.602 548.9 192.702 546.4 192.702C541.4 192.702 537.4 189.202 537.4 183.502C537.4 177.802 541.4 174.402 546.4 174.502C549 174.502 551.6 175.702 552.9 178.002V174.802H555.7V192.302L553 192.402ZM546.6 177.302C543.1 177.302 540.3 179.802 540.3 183.702C540.3 187.602 543.1 190.102 546.6 190.102C555 190.102 555 177.302 546.6 177.302Z" fill="white"/>
<path d="M558.5 174.902H561.3L561.4 178.302C562.8 176.002 565.4 174.602 568.1 174.602C573.1 174.702 576.8 178.302 576.8 183.602C576.8 189.102 573.1 192.702 567.9 192.702C565.4 192.702 562.7 191.602 561.3 189.202V200.602H558.5V174.902V174.902ZM574 183.702C574 179.802 571.4 177.402 567.8 177.402C564.1 177.402 561.7 180.102 561.7 183.702C561.7 187.302 564.3 190.002 567.8 190.002C571.3 190.002 574 187.602 574 183.702Z" fill="white"/>
<path d="M595.501 189.502C593.701 191.602 590.701 192.602 587.901 192.602C582.501 192.602 578.701 189.002 578.701 183.502C578.701 178.202 582.501 174.402 587.801 174.402C593.201 174.402 597.201 177.702 596.601 184.702H581.701C582.001 187.902 584.701 189.902 588.001 189.902C590.001 189.902 592.401 189.102 593.601 187.702L595.501 189.502ZM593.801 182.302C593.701 178.902 591.301 177.102 587.901 177.102C584.901 177.102 582.201 178.902 581.701 182.302H593.801Z" fill="white"/>
<path d="M608.801 169.702C605.601 169.702 602.301 170.902 602.301 174.002C602.301 176.702 605.401 177.502 609.001 178.102C614.001 178.902 618.901 179.902 618.901 185.502C618.901 191.102 613.501 192.902 608.801 192.902C604.401 192.902 600.201 191.302 598.301 187.202L600.901 185.702C602.501 188.602 605.801 190.102 608.901 190.102C611.901 190.102 615.901 189.102 615.901 185.502C615.901 182.402 612.501 181.502 608.701 181.002C603.901 180.302 599.301 179.202 599.301 174.102C599.201 168.902 604.501 167.102 608.801 167.102C612.501 167.102 616.001 167.802 618.201 171.602L615.901 173.102C614.401 170.802 611.501 169.802 608.801 169.702Z" fill="white"/>
<path d="M624.002 167.5V177.7C625.502 175.4 627.802 174.6 630.102 174.6C635.002 174.6 637.402 177.9 637.402 182.7V192.3H634.502V182.7C634.502 179.3 632.702 177.3 629.502 177.3C626.302 177.3 624.002 179.8 624.002 183V192.3H621.102V167.5H624.002Z" fill="white"/>
<path d="M652.2 173.603C652.2 171.003 653.4 169.803 655.3 169.803H655.4L656.1 167.303C655.8 167.303 655.5 167.203 655.3 167.203C651.6 167.203 649.4 169.503 649.4 173.503V174.903H646V177.503H649.4V192.303H652.3V177.503H655.8V175.003H652.3V173.603H652.2Z" fill="white"/>
<path d="M667.002 189.903C666.802 189.903 666.502 190.003 666.302 190.003C664.202 190.003 663.502 188.703 663.502 186.603V177.603H667.202V175.003H663.502V169.703L660.602 170.003V175.003H657.102V177.503H660.602V186.503C660.602 190.403 662.402 192.603 666.102 192.503C666.602 192.503 667.002 192.403 667.502 192.303L667.002 189.903Z" fill="white"/>
<path d="M462 179.601C463 179.201 463.8 178.601 464.5 177.801C465.4 176.801 465.8 175.501 465.8 174.101C465.8 172.801 465.5 171.701 465 170.801C464.5 169.901 463.8 169.201 463 168.701C462.2 168.201 461.3 167.801 460.3 167.601C459.3 167.401 458.3 167.301 457.3 167.301H449.4V193.301H457.2C458.7 193.301 460 193.101 461.2 192.801C462.4 192.501 463.4 192.001 464.3 191.301C465.1 190.701 465.8 189.901 466.3 189.001C466.8 188.101 467 187.101 467 186.001C467 184.101 466.4 182.501 465.3 181.401C464.3 180.501 463.2 179.901 462 179.601ZM462.2 176.301C461.9 176.801 461.5 177.301 461 177.601C460.5 177.901 459.9 178.201 459.3 178.301C458.7 178.401 458.1 178.501 457.5 178.501H452.6V170.101H456.8C457.6 170.101 458.4 170.201 459.1 170.301C459.8 170.401 460.4 170.701 460.9 171.001C461.4 171.301 461.8 171.801 462.1 172.301C462.4 172.801 462.5 173.501 462.5 174.201C462.6 175.101 462.4 175.801 462.2 176.301ZM452.5 181.201H457.5C459.5 181.201 461.1 181.601 462.2 182.401C463.3 183.201 463.8 184.301 463.8 185.901C463.8 186.701 463.6 187.501 463.3 188.001C462.9 188.601 462.5 189.101 461.9 189.501C461.3 189.901 460.6 190.201 459.8 190.301C459 190.501 458.1 190.601 457.2 190.601H452.7V181.201H452.5Z" fill="white"/>
<path d="M483.301 176L478.201 189.8L472.601 176H469.301L476.601 193.1L475.301 196.5C475.001 197.4 474.501 198.1 474.101 198.6C473.701 199.1 473.101 199.3 472.301 199.3C471.701 199.3 471.101 199.2 470.601 199L470.301 198.9L470.001 201.7H470.201C470.901 201.8 471.701 201.9 472.401 201.9C473.901 201.9 475.101 201.5 476.001 200.7C476.801 199.9 477.501 198.8 478.001 197.5L486.501 176H483.301Z" fill="white"/>
</svg>
