<svg id="Layer_3" data-name="Layer 3" xmlns="http://www.w3.org/2000/svg" viewBox="0 0 586.54 610.01"><defs><style>.cls-1{fill:#ff680a;}</style></defs><title>logo1</title><polygon class="cls-1" points="154.06 182.23 144.42 191.87 154.09 182.26 154.06 182.23 154.06 182.23"/><path class="cls-1" d="M305.82,153.83l33.24,33.23L305.82,220.3l-33.23-33.24,33.23-33.23m0-9.9-43.13,43.13,43.13,43.14L349,187.06l-43.14-43.13Z" transform="translate(-13.33 -69.46)"/><path class="cls-1" d="M254.91,204.74l33.94,33.94L273.3,254.24,259.86,240.8l-5-5-4.95,5L224.5,266.26l-4.94,4.95,4.94,5,65.06,65-14.85,14.85L189.15,270.5l65.76-65.76m0-9.9L179.25,270.5,274.71,366l24.75-24.75-70-70,25.46-25.46,18.39,18.39,25.45-25.46-43.84-43.84Z" transform="translate(-13.33 -69.46)"/><path class="cls-1" d="M491.61,271.11,571.4,352l2.83,2.87.18-.18,19.8,19.8L492.79,475.88,473,456.07l77.64-77.64,2.81-2.81-2.79-2.83L471,292l20.66-20.93m0-5.7L465.33,292,547.8,375.6l-80.47,80.47,25.46,25.46L599.87,374.45,574.41,349l-.16.16-82.64-83.74Z" transform="translate(-13.33 -69.46)"/><path class="cls-1" d="M121.59,271.11,142.25,292l-79.7,80.75-2.79,2.83,2.81,2.81,77.64,77.64-19.8,19.81L19,374.45l19.81-19.8.17.18L41.79,352l79.8-80.85m0-5.7L39,349.15l-.16-.16L13.33,374.45,120.41,481.53l25.46-25.46L65.4,375.6,147.87,292l-26.28-26.63Z" transform="translate(-13.33 -69.46)"/><path class="cls-1" d="M326.33,339.09l15.55,15.56-54.09,54.09-15.56-15.56,54.1-54.09m0-9.9-64,64,25.46,25.46,64-64-25.45-25.46Z" transform="translate(-13.33 -69.46)"/><path class="cls-1" d="M458.56,308,525,374.45l-.36.35.36.35-65.77,65.76-35-35,15.21-15.2L454,405.2l5,4.95,4.95-4.95,25.46-25.45,4.95-4.95-4.95-4.95L463.51,344l-4.95-5-4.95,5-65.06,65L373,393.54,458.56,308m0-9.9L363.1,393.54,388.55,419l70-70,25.81,25.81-25.46,25.46-19.44-19.45-25.11,25.1,44.9,44.9,75.66-75.66-.35-.35.35-.35-76.36-76.37Z" transform="translate(-13.33 -69.46)"/><path class="cls-1" d="M358.15,206.15l65.76,65.77-33.24,33.23-15.55-15.56,12.73-12.72,4.95-4.95L387.85,267l-25.11-25.11-4.95-5-5,5L328.1,266.61l-5,4.95,5,4.95,65.4,65.41L378,357.48l-65.41-65.41-5-4.95-4.95,4.95-14.5,14.49L272.59,291l65.76-65.76.35.35,4.95-4.95,14.5-14.5m0-9.9L338.7,215.7l-.35-.35L262.69,291l25.45,25.45L307.59,297,378,367.37l25.45-25.45-70.35-70.36,24.74-24.75,25.11,25.11-17.68,17.67,25.45,25.46,43.14-43.13-75.66-75.67Z" transform="translate(-13.33 -69.46)"/><path class="cls-1" d="M307.24,524.35l33.58,33.59-33.94,33.94L273.3,558.29l33.94-33.94m0-9.9L263.4,558.29l43.48,43.49,43.84-43.84-43.48-43.49Z" transform="translate(-13.33 -69.46)"/><path class="cls-1" d="M338.7,391.77l85.56,85.56L358.5,543.09l-33.94-33.94,15.56-15.56L353.55,507l4.95,5,4.95-5,25.46-25.46,4.95-4.95-4.95-4.95-65.06-65.05,14.85-14.85m0-9.9L314,406.62l70,70L358.5,502.08l-18.38-18.39-25.46,25.46L358.5,553l75.66-75.66L338.7,381.87Z" transform="translate(-13.33 -69.46)"/><path class="cls-1" d="M153.44,307.62l35,35-15.2,15.2-14.5-14.5-5-4.95-4.95,4.95-25.45,25.46-5,4.95,5,4.95L149.2,404.5l5,4.95,4.95-4.95,65.05-65.06L239.71,355l-85.56,85.56L87.68,374.09l.35-.35-.35-.35,65.76-65.77m0-9.9L77.78,373.39l.35.35-.35.35,76.37,76.37L249.61,355l-25.46-25.46-70,70-25.81-25.81,25.45-25.46,19.45,19.45,25.1-25.1-44.9-44.91Z" transform="translate(-13.33 -69.46)"/><path class="cls-1" d="M236.17,389.65l65.41,65.41,4.95,4.95,5-4.95L326,440.56l15.56,15.56-65.76,65.76-.35-.36-4.95,5L256,541l-65.76-65.76L223.44,442,239,457.53l-12.73,12.73-5,4.95,5,5,25.1,25.1,4.95,4.95,4.95-4.95L286,480.51l5-4.95-5-4.95-65.4-65.41,15.55-15.55m0-9.9L210.72,405.2l70.35,70.36-24.75,24.75-25.1-25.1,17.68-17.68-25.46-25.45-43.13,43.13L256,550.87l19.45-19.45.35.36,75.66-75.66L326,430.66l-19.44,19.45-70.36-70.36Z" transform="translate(-13.33 -69.46)"/><path class="cls-1" d="M296,85a7.75,7.75,0,0,0,.84,0h.51a1.9,1.9,0,0,0,.08.74,0,0,0,0,1,0,0h0V138.6l-2,2L166.2,269.79a2,2,0,0,0-.58,1.41,2,2,0,0,0,.58,1.42l49.86,49.85-11.17,11.17-72.18-72.17L251.57,142.62a2,2,0,0,0,.59-1.42v-36s0-.11,0-.16a5.53,5.53,0,0,0,.59,0,8.76,8.76,0,0,0,.91,0,1.22,1.22,0,0,0,0,.27v38.59L152.73,244.8a2,2,0,0,0-.76.48l-13.5,13.5a2,2,0,0,0,0,2.83l5.64,5.64a2,2,0,0,0,1.42.58,2,2,0,0,0,1.41-.58l7.69-7.69a2.09,2.09,0,0,0,.84-.5L269.91,145.3a1.93,1.93,0,0,0,.54-1,7.22,7.22,0,0,0,1.21.33,1.74,1.74,0,0,0-.11.61.45.45,0,0,1-.11.27L166,250.3l-9.68,9.62-3.86,3.86a2,2,0,0,0-.58,1.41,2,2,0,0,0,.58,1.42l5.64,5.64a2,2,0,0,0,1.42.58,2,2,0,0,0,1.41-.58L295.3,137.89a2,2,0,0,0,.59-1.42V85.77a.37.37,0,0,1,0-.11A2,2,0,0,0,296,85m.84-15.56A8.08,8.08,0,0,0,294,85.11a2.39,2.39,0,0,0-.09.66v50.7L159.53,270.83l-5.64-5.64,3.86-3.86,9.67-9.61,105.43-104.8a2.41,2.41,0,0,0,.7-1.63,8.08,8.08,0,1,0-6.15-13.81,8.08,8.08,0,0,0-.07,11.43,7.09,7.09,0,0,0,1.17,1L154.06,257.64l-.17-.17-8.36,8.36-5.64-5.64,13.5-13.5.14.14L255.66,144.7V105.32a1.93,1.93,0,0,0,0-.24,8.08,8.08,0,1,0-5.49.12v36L129.89,261.47l75,75,14-14L167.62,271.2,296.85,142l2.54-2.54V85.77a2,2,0,0,0-.07-.55,8.08,8.08,0,0,0-2.51-15.76Zm0,13.6a5.52,5.52,0,1,1,5.52-5.52,5.52,5.52,0,0,1-5.52,5.52Zm-44.74,20a5.53,5.53,0,1,1,1.53,0h0a4.8,4.8,0,0,1-.85.07,4.87,4.87,0,0,1-.66,0Zm21,39.73a5.45,5.45,0,0,1-3.92-1.64,5.53,5.53,0,1,1,3.92,1.64Z" transform="translate(-13.33 -69.46)"/><path class="cls-1" d="M203.89,415.29l11.17,11.17L165.2,476.32a2,2,0,0,0-.58,1.41,2,2,0,0,0,.58,1.42L294.43,608.38l2,2v52.86a2.1,2.1,0,0,0-.06.7l-.51,0a7.73,7.73,0,0,0-.84,0,2.09,2.09,0,0,0-.07-.65.34.34,0,0,1,0-.11v-50.7a2,2,0,0,0-.59-1.41L159.94,476.69a2,2,0,0,0-1.41-.59,2,2,0,0,0-1.42.59l-5.64,5.64a2,2,0,0,0-.58,1.41,2,2,0,0,0,.58,1.42l3.87,3.86,9.67,9.61,105.42,104.8a.44.44,0,0,1,.12.28,1.73,1.73,0,0,0,.11.6,7.25,7.25,0,0,0-1.21.34,2,2,0,0,0-.54-1L154.47,489.87a2.06,2.06,0,0,0-.84-.49l-7.69-7.69a2,2,0,0,0-1.41-.59,2,2,0,0,0-1.42.59l-5.64,5.64a2,2,0,0,0,0,2.83l13.5,13.5a1.9,1.9,0,0,0,.76.47L252.66,605.06v38.6a1.22,1.22,0,0,0,0,.27,6.62,6.62,0,0,0-.91-.06l-.59,0s0-.1,0-.16v-36a2,2,0,0,0-.59-1.41L131.71,487.46l72.18-72.17m0-2.83-75,75L249.16,607.73v36a8.08,8.08,0,1,0,5.49.12,1.93,1.93,0,0,0,0-.24V604.23L152.53,502.1l-.14.14-13.5-13.5,5.64-5.64,8.36,8.36.17-.17L267.5,605.05a7.09,7.09,0,0,0-1.17,1,8.08,8.08,0,1,0,11.43-.07,8,8,0,0,0-5.21-2.31,2.41,2.41,0,0,0-.7-1.63L166.42,497.21l-9.67-9.61-3.86-3.86,5.64-5.64L292.89,612.46v50.7a2.39,2.39,0,0,0,.09.66,8.08,8.08,0,1,0,5.34-.11,2,2,0,0,0,.07-.55V609.5L295.85,607,166.62,477.73l51.27-51.27-14-14Zm68.19,204.76a5.52,5.52,0,1,1,3.93-1.64,5.51,5.51,0,0,1-3.93,1.64Zm-20.34,39.69a5.52,5.52,0,0,1-.67-11h0a4.87,4.87,0,0,1,.66,0,4.8,4.8,0,0,1,.85.07h0a5.52,5.52,0,0,1-.86,11Zm44.07,20a5.52,5.52,0,1,1,5.52-5.52,5.52,5.52,0,0,1-5.52,5.52Z" transform="translate(-13.33 -69.46)"/><path class="cls-1" d="M410.89,415.29l72.17,72.17L364.2,606.32a2,2,0,0,0-.58,1.41v36.16l-.58,0a6.88,6.88,0,0,0-.92.06,1.22,1.22,0,0,0,0-.27v-38.6L463.05,504.13a2,2,0,0,0,.75-.47l13.5-13.5a2,2,0,0,0,0-2.83l-5.64-5.64a2,2,0,0,0-1.41-.59,2,2,0,0,0-1.42.59l-7.69,7.69a2,2,0,0,0-.83.49L345.87,603.63a2,2,0,0,0-.55,1,7.25,7.25,0,0,0-1.21-.34,1.73,1.73,0,0,0,.11-.6.44.44,0,0,1,.12-.28l105.43-104.8,9.67-9.61,3.86-3.86a2,2,0,0,0,.59-1.42,2,2,0,0,0-.59-1.41l-5.64-5.64a2,2,0,0,0-1.41-.59,2,2,0,0,0-1.42.59L320.47,611.05a2,2,0,0,0-.58,1.41v50.7a.31.31,0,0,1,0,.11,2.09,2.09,0,0,0-.07.65,7.7,7.7,0,0,0-.83,0l-.52,0a1.9,1.9,0,0,0-.08-.74v0h0V610.33l1.95-2L449.57,479.15a2,2,0,0,0,.59-1.42,2,2,0,0,0-.59-1.41l-49.86-49.86,11.18-11.17m0-2.83-14,14,51.27,51.27L318.93,607l-2.54,2.54v53.66a2,2,0,0,0,.07.55,8.09,8.09,0,1,0,5.34.11,2.39,2.39,0,0,0,.09-.66v-50.7L456.25,478.1l5.64,5.64L458,487.6l-9.67,9.61L342.93,602a2.41,2.41,0,0,0-.7,1.63,8.08,8.08,0,0,0,.46,16.15A8.09,8.09,0,0,0,348.45,606a7.09,7.09,0,0,0-1.17-1L461.72,491.29l.17.17,8.36-8.36,5.64,5.64-13.5,13.5-.14-.14L360.12,604.23v39.38a1.93,1.93,0,0,0,0,.24,8.08,8.08,0,1,0,5.49-.12v-36L485.89,487.46l-75-75Zm-68.2,204.76a5.45,5.45,0,0,1-3.92-1.64,5.53,5.53,0,1,1,3.92,1.64ZM363,656.91a5.52,5.52,0,0,1-.86-11h0a4.8,4.8,0,0,1,.85-.07,4.87,4.87,0,0,1,.66,0h0a5.52,5.52,0,0,1-.67,11Zm-44.07,20a5.52,5.52,0,1,1,5.52-5.52,5.52,5.52,0,0,1-5.52,5.52Z" transform="translate(-13.33 -69.46)"/><path class="cls-1" d="M319.8,85a2,2,0,0,0,.07.64.36.36,0,0,1,0,.11v50.7a2,2,0,0,0,.58,1.42L454.83,272.25a2,2,0,0,0,1.42.58,2,2,0,0,0,1.41-.58l5.64-5.64a2,2,0,0,0,.59-1.42,2,2,0,0,0-.59-1.41l-3.86-3.87-9.67-9.61L344.34,145.51a.46.46,0,0,1-.12-.28,1.74,1.74,0,0,0-.11-.61,7.22,7.22,0,0,0,1.21-.33,1.94,1.94,0,0,0,.55,1L460.31,259.06a2,2,0,0,0,.83.5l7.69,7.69a2,2,0,0,0,1.42.58,2,2,0,0,0,1.41-.58l5.64-5.64a2,2,0,0,0,0-2.83l-13.5-13.5a1.8,1.8,0,0,0-.75-.47L362.12,143.87V105.28a1.22,1.22,0,0,0,0-.27,9.12,9.12,0,0,0,.92,0,5.43,5.43,0,0,0,.58,0V141.2a2,2,0,0,0,.58,1.42L483.06,261.47l-72.17,72.17-11.18-11.17,49.86-49.85a2,2,0,0,0,.59-1.42,2,2,0,0,0-.59-1.41L320.34,140.56l-1.95-2V85.74a2,2,0,0,0,.06-.69H319a7.69,7.69,0,0,0,.83,0m-1.41.71h0m43.73,19.54h0M319,69.46a8.08,8.08,0,0,0-2.51,15.76,2,2,0,0,0-.07.55v53.66l2.54,2.54L448.16,271.2l-51.27,51.27,14,14,75-75L365.62,141.2v-36a8.08,8.08,0,1,0-5.49-.12,1.93,1.93,0,0,0,0,.24V144.7L462.25,246.83l.14-.14,13.5,13.5-5.64,5.64-8.36-8.36-.17.17L347.28,143.88a7.09,7.09,0,0,0,1.17-1A8.08,8.08,0,1,0,337,143a8,8,0,0,0,5.21,2.31,2.41,2.41,0,0,0,.7,1.63l105.43,104.8,9.67,9.61,3.86,3.86-5.64,5.64L321.89,136.47V85.77a2.39,2.39,0,0,0-.09-.66A8.08,8.08,0,0,0,319,69.46Zm0,13.6a5.52,5.52,0,1,1,5.52-5.52A5.52,5.52,0,0,1,319,83.06ZM362.18,103a5.51,5.51,0,1,1,1.53,0h0a4.87,4.87,0,0,1-.66,0,4.8,4.8,0,0,1-.85-.07ZM342.7,142.75a5.52,5.52,0,1,1,3.93-1.64,5.51,5.51,0,0,1-3.93,1.64Z" transform="translate(-13.33 -69.46)"/></svg>