<svg width="365" height="148" viewBox="0 0 365 148" fill="none" xmlns="http://www.w3.org/2000/svg">
<path d="M358.6 79.0428C357.08 76.7761 355.573 74.9628 354.08 73.6028C352.573 72.2428 351.173 71.5628 349.88 71.5628C349.08 71.5628 348.44 71.7695 347.96 72.1828C347.467 72.5828 347.22 73.2361 347.22 74.1428C347.22 75.0761 347.52 75.7828 348.12 76.2628C348.707 76.7428 349.52 77.0095 350.56 77.0628V78.8628C348.987 78.7695 347.78 78.2828 346.94 77.4028C346.087 76.5228 345.66 75.3895 345.66 74.0028C345.66 72.6828 346.013 71.6361 346.72 70.8628C347.427 70.0895 348.427 69.7028 349.72 69.7028C350.787 69.7028 351.873 70.0495 352.98 70.7428C354.073 71.4228 355.093 72.2828 356.04 73.3228C356.973 74.3495 357.767 75.4095 358.42 76.5028V69.3428H359.92V79.0428H358.6ZM352.86 66.8952C355.127 66.8952 356.893 66.5218 358.16 65.7752C359.427 65.0285 360.06 63.7352 360.06 61.8952C360.06 60.0552 359.427 58.7618 358.16 58.0152C356.893 57.2552 355.127 56.8752 352.86 56.8752C350.62 56.8752 348.867 57.2552 347.6 58.0152C346.333 58.7618 345.7 60.0552 345.7 61.8952C345.7 63.7352 346.333 65.0285 347.6 65.7752C348.853 66.5218 350.607 66.8952 352.86 66.8952ZM352.86 58.6752C354.02 58.6752 354.993 58.7618 355.78 58.9352C356.553 59.0952 357.173 59.4085 357.64 59.8752C358.107 60.3418 358.34 61.0152 358.34 61.8952C358.34 62.7618 358.107 63.4285 357.64 63.8952C357.173 64.3618 356.553 64.6818 355.78 64.8552C354.993 65.0152 354.02 65.0952 352.86 65.0952C351.713 65.0952 350.753 65.0152 349.98 64.8552C349.207 64.6818 348.593 64.3618 348.14 63.8952C347.673 63.4285 347.44 62.7618 347.44 61.8952C347.44 61.0152 347.673 60.3418 348.14 59.8752C348.593 59.4085 349.207 59.0952 349.98 58.9352C350.753 58.7618 351.713 58.6752 352.86 58.6752ZM358.6 54.41C357.08 52.1433 355.573 50.33 354.08 48.97C352.573 47.61 351.173 46.93 349.88 46.93C349.08 46.93 348.44 47.1367 347.96 47.55C347.467 47.95 347.22 48.6033 347.22 49.51C347.22 50.4433 347.52 51.15 348.12 51.63C348.707 52.11 349.52 52.3767 350.56 52.43V54.23C348.987 54.1367 347.78 53.65 346.94 52.77C346.087 51.89 345.66 50.7567 345.66 49.37C345.66 48.05 346.013 47.0033 346.72 46.23C347.427 45.4567 348.427 45.07 349.72 45.07C350.787 45.07 351.873 45.4167 352.98 46.11C354.073 46.79 355.093 47.65 356.04 48.69C356.973 49.7167 357.767 50.7767 358.42 51.87V44.71H359.92V54.41H358.6ZM352.86 42.2623C355.127 42.2623 356.893 41.889 358.16 41.1423C359.427 40.3957 360.06 39.1023 360.06 37.2623C360.06 35.4223 359.427 34.129 358.16 33.3823C356.893 32.6223 355.127 32.2423 352.86 32.2423C350.62 32.2423 348.867 32.6223 347.6 33.3823C346.333 34.129 345.7 35.4223 345.7 37.2623C345.7 39.1023 346.333 40.3957 347.6 41.1423C348.853 41.889 350.607 42.2623 352.86 42.2623ZM352.86 34.0423C354.02 34.0423 354.993 34.129 355.78 34.3023C356.553 34.4623 357.173 34.7757 357.64 35.2423C358.107 35.709 358.34 36.3823 358.34 37.2623C358.34 38.129 358.107 38.7957 357.64 39.2623C357.173 39.729 356.553 40.049 355.78 40.2223C354.993 40.3823 354.02 40.4623 352.86 40.4623C351.713 40.4623 350.753 40.3823 349.98 40.2223C349.207 40.049 348.593 39.729 348.14 39.2623C347.673 38.7957 347.44 38.129 347.44 37.2623C347.44 36.3823 347.673 35.709 348.14 35.2423C348.593 34.7757 349.207 34.4623 349.98 34.3023C350.753 34.129 351.713 34.0423 352.86 34.0423Z" fill="#FCFCFC"/>
<g clip-path="url(#clip0)">
<path d="M28.2656 35.8733L26.6221 37.4536L28.2707 35.8782L28.2656 35.8733Z" fill="#FF680A"/>
<path d="M51.867 19.8309L57.5341 25.2784L51.867 30.7275L46.2015 25.2784L51.867 19.8309ZM51.867 18.208L44.5137 25.2784L51.867 32.3504L59.2288 25.2784L51.8738 18.208H51.867Z" fill="#FF680A"/>
<path d="M43.1875 28.1766L48.9739 33.7405L46.3228 36.2913L44.0314 34.088L43.1789 33.2684L42.335 34.088L38.0028 38.2617L37.1606 39.0732L38.0028 39.8928L49.095 50.5484L46.5632 52.9828L31.9759 38.9568L43.1875 28.1766V28.1766ZM43.1875 26.5537L30.2881 38.9568L46.5632 54.6123L50.7829 50.555L38.8485 39.0797L43.1892 34.906L46.3245 37.9207L50.6635 33.747L43.1892 26.5603L43.1875 26.5537Z" fill="#FF680A"/>
<path d="M83.543 39.0569L97.1465 52.3174L97.629 52.7879L97.6597 52.7583L101.035 56.0042L83.7442 72.6252L80.3702 69.3777L93.6071 56.6501L94.0862 56.1894L93.6105 55.7255L80.0292 42.4815L83.5515 39.0504L83.543 39.0569ZM83.5515 38.116L79.0625 42.4815L93.1229 56.1862L79.4035 69.3777L83.7442 73.5514L102 55.9976L97.6597 51.8256L97.6324 51.8518L83.543 38.1242L83.5515 38.116Z" fill="#FF680A"/>
<path d="M20.4574 39.0569L23.9797 42.4815L10.3916 55.719L9.91591 56.1829L10.395 56.6435L23.6319 69.3712L20.2562 72.6187L2.96669 55.9976L6.34412 52.7518L6.3731 52.7813L6.85218 52.3174L20.4574 39.0635V39.0569ZM20.4574 38.1291L6.37651 51.8502L6.34923 51.8239L2 55.9976L20.2562 73.5514L24.5969 69.3777L10.8775 56.1862L24.9379 42.4815L20.4574 38.116V38.1291Z" fill="#FF680A"/>
<path d="M55.3636 50.201L58.0147 52.7518L48.7929 61.6189L46.14 59.0681L55.3636 50.201V50.201ZM55.3636 48.5781L44.4521 59.0698L48.7929 63.2435L59.7043 52.7518L55.3653 48.5781H55.3636Z" fill="#FF680A"/>
<path d="M77.9079 45.1043L89.2354 55.9976L89.174 56.0549L89.2354 56.1123L78.0221 66.8925L72.0549 61.1549L74.6481 58.6631L77.1305 61.0385L77.9829 61.8499L78.8269 61.0385L83.1676 56.8664L84.0115 56.0549L83.1676 55.2435L78.7518 51.0058L77.9079 50.1862L77.064 51.0058L65.9718 61.6614L63.3207 59.127L77.9079 45.1043ZM77.9079 43.4814L61.6328 59.127L65.9718 63.3007L77.9062 51.8255L82.3066 56.0566L77.9659 60.2303L74.6515 57.0418L70.3705 61.1565L78.0256 68.517L90.9249 56.114L90.8653 56.0566L90.9249 55.9992L77.9062 43.4797L77.9079 43.4814Z" fill="#FF680A"/>
<path d="M60.7888 28.4078L72.0003 39.1896L66.3332 44.637L63.682 42.0862L65.8524 40.001L66.6963 39.1896L65.8524 38.383L61.5713 34.2667L60.7274 33.447L59.8749 34.2667L55.6655 38.3191L54.8131 39.1305L55.6655 39.942L66.8156 50.6648L64.173 53.2156L53.0212 42.4928L52.1687 41.6813L51.3248 42.4928L48.8527 44.8681L46.2015 42.3174L57.413 31.5372L57.4727 31.5946L58.3167 30.7831L60.7888 28.4061V28.4078ZM60.7888 26.7832L57.4727 29.9733L57.413 29.9159L44.5137 42.3174L48.8527 46.4894L52.1687 43.301L64.173 54.8368L68.512 50.6648L56.518 39.1305L60.7359 35.0732L65.017 39.1896L62.0027 42.0862L66.3417 46.2599L73.6967 39.1896L60.7973 26.7848L60.7888 26.7832Z" fill="#FF680A"/>
<path d="M52.1091 80.5709L57.8342 86.0774L52.0477 91.6412L46.3226 86.1348L52.1091 80.5709V80.5709ZM52.1091 78.948L44.6348 86.1348L52.0477 93.2641L59.5221 86.0774L52.1091 78.948Z" fill="#FF680A"/>
<path d="M57.4729 58.8368L72.0601 72.8628L60.8486 83.643L55.0621 78.0791L57.715 75.5284L60.0046 77.7267L60.8486 78.5463L61.6925 77.7267L66.0332 73.553L66.8772 72.7415L66.0332 71.9301L54.9411 61.2663L57.4729 58.8319V58.8368ZM57.4729 57.209L53.2617 61.2712L65.1961 72.7464L60.8486 76.9201L57.715 73.9054L53.3742 78.0791L60.8486 85.2675L73.748 72.8645L57.4729 57.2139V57.209Z" fill="#FF680A"/>
<path d="M25.8877 45.042L31.8549 50.7797L29.2634 53.2714L26.7913 50.8944L25.9388 50.0829L25.0949 50.8944L20.7559 55.0681L19.9034 55.8796L20.7559 56.691L25.1648 60.9237L26.0172 61.7352L26.8612 60.9237L37.9516 50.2584L40.5959 52.8091L26.0087 66.8351L14.6761 55.9386L14.7358 55.8812L14.6761 55.8238L25.8877 45.042V45.042ZM25.8877 43.4191L12.9883 55.8238L13.048 55.8812L12.9883 55.9386L26.0087 68.458L42.2838 52.8091L37.9431 48.6354L26.0087 60.1106L21.6083 55.8796L25.9473 51.7059L29.2634 54.8943L33.5427 50.7797L25.8877 43.4175V43.4191Z" fill="#FF680A"/>
<path d="M39.9924 58.4894L51.1442 69.2121L51.9882 70.0236L52.8406 69.2121L55.3076 66.8351L57.9605 69.3859L46.749 80.1661L46.6893 80.107L45.8454 80.9267L43.3732 83.3004L32.1617 72.5203L37.822 67.0712L40.4749 69.6171L38.3045 71.7039L37.4521 72.5154L38.3045 73.335L42.5839 77.4497L43.4278 78.2612L44.2717 77.4497L48.488 73.3842L49.3404 72.5727L48.488 71.7613L37.3378 61.0385L39.989 58.4894H39.9924ZM39.989 56.8665L35.6534 61.0385L47.6475 72.5727L43.4278 76.6301L39.1485 72.5154L42.1628 69.6171L37.822 65.445L30.4688 72.5154L43.3732 84.9184L46.6893 81.73L46.749 81.789L59.6483 69.3859L55.3076 65.2122L51.9933 68.4007L39.9975 56.8665H39.989Z" fill="#FF680A"/>
<path d="M50.1934 8.54741C50.2411 8.5499 50.2889 8.5499 50.3366 8.54741H50.4235C50.4197 8.58831 50.4243 8.62954 50.4372 8.66872V17.3342L50.0962 17.662L28.0636 38.8404C28.0002 38.9018 27.9646 38.9849 27.9647 39.0715C27.9644 39.1147 27.973 39.1574 27.99 39.1974C28.007 39.2373 28.032 39.2736 28.0636 39.3043L36.5643 47.4763L34.6599 49.3074L22.3538 37.4764L42.6184 17.9932C42.6503 17.9627 42.6757 17.9264 42.6929 17.8864C42.7102 17.8465 42.7191 17.8036 42.719 17.7604V11.8588C42.719 11.8588 42.719 11.8408 42.719 11.8326C42.7525 11.8343 42.7861 11.8343 42.8196 11.8326C42.8713 11.8352 42.9231 11.8352 42.9748 11.8326C42.9731 11.8473 42.9731 11.8622 42.9748 11.8769V18.203L25.7671 34.7437C25.7182 34.7601 25.6739 34.787 25.6375 34.8224L23.3359 37.0355C23.3042 37.0659 23.279 37.1021 23.2618 37.1419C23.2447 37.1817 23.2359 37.2243 23.2359 37.2674C23.2359 37.3105 23.2447 37.3532 23.2618 37.393C23.279 37.4328 23.3042 37.4689 23.3359 37.4994L24.2974 38.424C24.3293 38.4544 24.3671 38.4784 24.4086 38.4947C24.4502 38.511 24.4947 38.5193 24.5395 38.5191C24.6296 38.5191 24.716 38.4849 24.7799 38.424L26.091 37.1633C26.1448 37.1473 26.1939 37.1192 26.2342 37.0814L45.7452 18.4325C45.7923 18.388 45.8244 18.3309 45.8373 18.2686C45.9043 18.2923 45.9733 18.3104 46.0436 18.3227C46.0312 18.3546 46.0248 18.3885 46.0248 18.4227C46.0239 18.439 46.0173 18.4546 46.0061 18.4669L28.0295 35.6453L26.3791 37.2224L25.721 37.8551C25.6576 37.9166 25.6221 37.9997 25.6222 38.0863C25.6219 38.1294 25.6305 38.1722 25.6475 38.2121C25.6644 38.2521 25.6894 38.2884 25.721 38.3191L26.6826 39.2436C26.7145 39.274 26.7523 39.2981 26.7938 39.3144C26.8353 39.3307 26.8798 39.339 26.9247 39.3387C27.0147 39.3388 27.1012 39.3046 27.1651 39.2436L50.074 17.2178C50.1059 17.1873 50.1312 17.151 50.1485 17.111C50.1658 17.0711 50.1746 17.0282 50.1746 16.985V8.67364C50.1737 8.66766 50.1737 8.66158 50.1746 8.6556C50.1871 8.62081 50.1935 8.58423 50.1934 8.54741ZM50.3366 5.99663C50.0118 5.99393 49.6965 6.10166 49.4463 6.30079C49.1961 6.49992 49.0271 6.77765 48.9692 7.08494C48.9113 7.39222 48.9681 7.70931 49.1297 7.9802C49.2913 8.2511 49.5473 8.45837 49.8524 8.56544C49.842 8.60064 49.8369 8.63706 49.837 8.67364V16.985L26.9264 39.0108L25.9648 38.0863L26.6229 37.4535L28.2716 35.8781L46.2465 18.6981C46.3202 18.6268 46.3628 18.5313 46.3658 18.4309C46.5883 18.4185 46.8044 18.3544 46.9954 18.2441C47.1865 18.1337 47.3469 17.9805 47.4628 17.7975C47.5787 17.6144 47.6467 17.4071 47.661 17.1932C47.6752 16.9794 47.6353 16.7654 47.5447 16.5696C47.454 16.3739 47.3153 16.2022 47.1404 16.0693C46.9656 15.9364 46.7598 15.8463 46.5408 15.8067C46.3218 15.7671 46.096 15.7792 45.8829 15.842C45.6698 15.9047 45.4757 16.0162 45.3173 16.167C45.1885 16.2892 45.086 16.4347 45.0157 16.595C44.9454 16.7554 44.9087 16.9274 44.9076 17.1015C44.9065 17.2755 44.941 17.448 45.0093 17.6091C45.0775 17.7703 45.1781 17.9169 45.3054 18.0407C45.3655 18.1021 45.4324 18.1571 45.5048 18.2046L25.9938 36.8486L25.9648 36.8207L24.5395 38.1912L23.578 37.2666L25.8796 35.0535L25.9035 35.0765L43.3157 18.3341V11.8785C43.3166 11.8654 43.3166 11.8523 43.3157 11.8392C43.6181 11.7269 43.8696 11.5156 44.026 11.2426C44.1824 10.9697 44.2337 10.6524 44.1708 10.3466C44.108 10.0409 43.935 9.76621 43.6823 9.57099C43.4296 9.37577 43.1134 9.27248 42.7893 9.27929C42.4653 9.2861 42.1541 9.40258 41.9105 9.60823C41.6669 9.81388 41.5066 10.0955 41.4576 10.4036C41.4087 10.7117 41.4744 11.0266 41.643 11.2927C41.8117 11.5589 42.0725 11.7594 42.3797 11.8588V17.7604L21.873 37.4764L34.6599 49.7713L37.0468 47.4763L28.3057 39.0715L50.3383 17.8915L50.7713 17.4751V8.67364C50.7717 8.64319 50.7677 8.61285 50.7594 8.58347C51.0709 8.48554 51.336 8.284 51.5069 8.01506C51.6777 7.74611 51.7433 7.42739 51.6917 7.11615C51.6402 6.8049 51.4749 6.52153 51.2256 6.31694C50.9763 6.11235 50.6592 5.99994 50.3315 5.99991L50.3366 5.99663ZM50.3366 8.2261C50.1504 8.2261 49.9685 8.17303 49.8137 8.0736C49.6589 7.97417 49.5383 7.83284 49.4671 7.66749C49.3959 7.50214 49.3772 7.3202 49.4135 7.14466C49.4499 6.96913 49.5395 6.80789 49.6711 6.68134C49.8027 6.55478 49.9704 6.4686 50.153 6.43368C50.3355 6.39877 50.5248 6.41669 50.6967 6.48518C50.8687 6.55367 51.0157 6.66965 51.1191 6.81846C51.2225 6.96727 51.2777 7.14223 51.2777 7.3212C51.2777 7.56119 51.1785 7.79136 51.002 7.96106C50.8255 8.13077 50.5862 8.2261 50.3366 8.2261V8.2261ZM42.7088 11.5047C42.4723 11.473 42.2572 11.3562 42.1069 11.1779C41.9565 10.9996 41.8821 10.7731 41.8987 10.5441C41.9152 10.3151 42.0215 10.1006 42.1961 9.94404C42.3706 9.78745 42.6005 9.70037 42.8392 9.70037C43.0779 9.70037 43.3078 9.78745 43.4824 9.94404C43.6569 10.1006 43.7632 10.3151 43.7798 10.5441C43.7963 10.7731 43.7219 10.9996 43.5715 11.1779C43.4212 11.3562 43.2061 11.473 42.9696 11.5047V11.5047C42.9218 11.5127 42.8733 11.5165 42.8247 11.5162C42.7873 11.5187 42.7497 11.5187 42.7122 11.5162L42.7088 11.5047ZM46.2891 18.0177C46.1647 18.0183 46.0414 17.9947 45.9266 17.9485C45.8118 17.9023 45.7078 17.8345 45.6208 17.7489C45.4674 17.5999 45.3725 17.4045 45.3522 17.1958C45.3319 16.9871 45.3874 16.778 45.5093 16.6043C45.6312 16.4305 45.8119 16.3027 46.0208 16.2427C46.2296 16.1826 46.4537 16.194 46.6548 16.2749C46.8559 16.3558 47.0216 16.5012 47.1238 16.6864C47.2259 16.8715 47.2582 17.085 47.2151 17.2905C47.172 17.4959 47.0562 17.6807 46.8873 17.8133C46.7185 17.9459 46.5071 18.0181 46.2891 18.0177V18.0177Z" fill="#FF680A"/>
<path d="M34.489 62.6924L36.3934 64.5236L27.8927 72.6972C27.8293 72.7587 27.7937 72.8418 27.7938 72.9283C27.7935 72.9715 27.8021 73.0143 27.8191 73.0542C27.8361 73.0941 27.8611 73.1305 27.8927 73.1611L49.9253 94.346L50.2663 94.6739V103.339C50.2562 103.377 50.2527 103.416 50.256 103.454H50.1691C50.1214 103.452 50.0736 103.452 50.0259 103.454C50.0277 103.418 50.0237 103.382 50.0139 103.347C50.0129 103.342 50.0129 103.335 50.0139 103.329V95.0181C50.0136 94.9313 49.9774 94.8482 49.9134 94.787L26.9959 72.7578C26.9323 72.6963 26.8458 72.6615 26.7555 72.6611C26.7105 72.6611 26.666 72.6696 26.6244 72.6862C26.5829 72.7028 26.5451 72.7272 26.5134 72.7578L25.5518 73.6824C25.4884 73.7439 25.4529 73.827 25.453 73.9136C25.4527 73.9567 25.4613 73.9995 25.4783 74.0394C25.4952 74.0794 25.5202 74.1157 25.5518 74.1463L26.2116 74.7791L27.8603 76.3545L45.8335 93.5345C45.8458 93.547 45.853 93.5633 45.854 93.5804C45.8541 93.614 45.8604 93.6473 45.8727 93.6788C45.8024 93.6916 45.7334 93.7103 45.6664 93.7345C45.6529 93.6725 45.6209 93.6155 45.5743 93.5706L26.0633 74.9185C26.0229 74.8811 25.9738 74.8535 25.9201 74.8381L24.609 73.5775C24.5454 73.5159 24.4589 73.4812 24.3686 73.4808C24.3236 73.4808 24.2791 73.4893 24.2375 73.5059C24.196 73.5225 24.1583 73.5468 24.1265 73.5775L23.165 74.5021C23.1333 74.5325 23.1081 74.5687 23.0909 74.6085C23.0738 74.6483 23.065 74.691 23.065 74.734C23.065 74.7771 23.0738 74.8198 23.0909 74.8596C23.1081 74.8994 23.1333 74.9356 23.165 74.966L25.4666 77.1791C25.5028 77.2143 25.5472 77.2407 25.5962 77.2561L42.8039 93.8018V100.13C42.8022 100.144 42.8022 100.159 42.8039 100.174C42.7524 100.167 42.7006 100.164 42.6487 100.164H42.5481C42.5481 100.164 42.5481 100.148 42.5481 100.138V94.2362C42.5477 94.1494 42.5116 94.0662 42.4475 94.005L22.1829 74.5234L34.489 62.6924V62.6924ZM34.489 62.2285L21.7021 74.5234L42.2071 94.2394V100.141C41.8999 100.24 41.6391 100.441 41.4704 100.707C41.3018 100.973 41.2361 101.288 41.285 101.596C41.334 101.904 41.4943 102.186 41.7379 102.392C41.9815 102.597 42.2927 102.714 42.6167 102.721C42.9408 102.727 43.257 102.624 43.5097 102.429C43.7624 102.234 43.9354 101.959 43.9982 101.653C44.0611 101.347 44.0098 101.03 43.8534 100.757C43.697 100.484 43.4455 100.273 43.1431 100.161C43.144 100.148 43.144 100.134 43.1431 100.121V93.6657L25.7326 76.9234L25.7087 76.9463L23.4071 74.7332L24.3686 73.8086L25.7939 75.1791L25.8229 75.1513L45.334 93.8001C45.2615 93.8476 45.1946 93.9026 45.1345 93.964C44.9431 94.1504 44.8135 94.3872 44.762 94.6445C44.7106 94.9017 44.7396 95.1678 44.8454 95.4092C44.9513 95.6506 45.1291 95.8563 45.3566 96.0005C45.584 96.1447 45.8508 96.2208 46.1232 96.2192C46.3957 96.2176 46.6615 96.1383 46.8871 95.9915C47.1126 95.8446 47.2879 95.6368 47.3906 95.3942C47.4934 95.1516 47.519 94.8852 47.4643 94.6286C47.4096 94.372 47.2769 94.1367 47.0832 93.9526C46.8455 93.7258 46.5293 93.591 46.1949 93.5739C46.1919 93.4735 46.1493 93.3779 46.0756 93.3067L28.1007 76.1217L26.452 74.5463L25.7939 73.9136L26.7555 72.989L49.6627 95.0149V103.326C49.6626 103.363 49.6677 103.399 49.6781 103.434C49.3733 103.544 49.1187 103.753 48.9593 104.026C48.7998 104.299 48.7459 104.617 48.807 104.924C48.8682 105.231 49.0404 105.508 49.2932 105.705C49.5461 105.902 49.8632 106.006 50.1884 106C50.5137 105.993 50.8261 105.876 51.0703 105.669C51.3144 105.463 51.4747 105.18 51.5226 104.87C51.5705 104.561 51.503 104.245 51.3321 103.979C51.1611 103.713 50.8977 103.514 50.5885 103.416C50.5968 103.387 50.6008 103.357 50.6004 103.326V94.5296L50.1674 94.1198L28.1348 72.9283L36.8759 64.5236L34.489 62.2285V62.2285ZM46.1148 95.7952C45.8973 95.795 45.6866 95.7225 45.5185 95.5899C45.3504 95.4572 45.2352 95.2727 45.1926 95.0677C45.1499 94.8626 45.1825 94.6497 45.2846 94.4651C45.3868 94.2805 45.5523 94.1357 45.753 94.0552C45.9537 93.9746 46.1772 93.9634 46.3855 94.0234C46.5938 94.0834 46.7741 94.2109 46.8957 94.3843C47.0173 94.5577 47.0727 94.7662 47.0525 94.9744C47.0323 95.1826 46.9377 95.3776 46.7848 95.5263C46.6973 95.6116 46.593 95.6793 46.4779 95.7255C46.3629 95.7716 46.2395 95.7953 46.1148 95.7952V95.7952ZM42.647 102.302C42.4071 102.302 42.1762 102.214 42.0014 102.056C41.8266 101.898 41.7211 101.682 41.7065 101.452C41.6919 101.221 41.7693 100.995 41.9229 100.817C42.0765 100.64 42.2946 100.526 42.5328 100.498C42.5702 100.496 42.6078 100.496 42.6453 100.498C42.6939 100.498 42.7424 100.502 42.7902 100.51V100.51C43.0327 100.536 43.2551 100.652 43.4105 100.833C43.5659 101.014 43.6422 101.246 43.6231 101.48C43.6041 101.714 43.4913 101.931 43.3086 102.087C43.1258 102.242 42.8874 102.323 42.6436 102.313L42.647 102.302ZM50.1606 105.58C49.9744 105.58 49.7925 105.527 49.6377 105.428C49.4829 105.328 49.3623 105.187 49.2911 105.022C49.2199 104.856 49.2012 104.674 49.2375 104.499C49.2738 104.323 49.3635 104.162 49.4951 104.035C49.6267 103.909 49.7944 103.823 49.977 103.788C50.1595 103.753 50.3487 103.771 50.5207 103.839C50.6927 103.908 50.8397 104.024 50.9431 104.173C51.0465 104.321 51.1017 104.496 51.1017 104.675C51.1017 104.915 51.0025 105.145 50.826 105.315C50.6495 105.485 50.4102 105.58 50.1606 105.58V105.58Z" fill="#FF680A"/>
<path d="M69.7808 62.6924L82.0852 74.5234L61.8206 94.0083C61.7572 94.0698 61.7216 94.1529 61.7217 94.2394V100.167H61.6228C61.5704 100.167 61.518 100.17 61.466 100.177C61.4677 100.162 61.4677 100.147 61.466 100.133V93.805L78.6737 77.2561C78.7217 77.24 78.7654 77.2136 78.8015 77.1791L81.1032 74.966C81.1349 74.9356 81.16 74.8994 81.1772 74.8596C81.1944 74.8198 81.2032 74.7771 81.2032 74.734C81.2032 74.691 81.1944 74.6483 81.1772 74.6085C81.16 74.5687 81.1349 74.5325 81.1032 74.5021L80.1416 73.5775C80.078 73.5159 79.9915 73.4812 79.9012 73.4808C79.8562 73.4808 79.8117 73.4893 79.7701 73.5059C79.7286 73.5225 79.6908 73.5468 79.6591 73.5775L78.348 74.8381C78.2948 74.8534 78.2462 74.881 78.2065 74.9185L58.6955 93.5673C58.6483 93.6121 58.6158 93.669 58.6017 93.7313C58.5348 93.707 58.4657 93.6883 58.3954 93.6755C58.4077 93.6441 58.414 93.6108 58.4142 93.5772C58.4151 93.56 58.4224 93.5437 58.4346 93.5313L76.4095 76.3512L78.0582 74.7758L78.7163 74.1431C78.7482 74.1126 78.7735 74.0763 78.7908 74.0363C78.8081 73.9964 78.8169 73.9535 78.8169 73.9103C78.8165 73.8235 78.7803 73.7403 78.7163 73.6791L77.7547 72.7546C77.6911 72.693 77.6046 72.6582 77.5143 72.6578C77.4693 72.6578 77.4248 72.6663 77.3832 72.6829C77.3417 72.6995 77.304 72.7239 77.2722 72.7546L54.365 94.7837C54.3016 94.8452 54.2661 94.9283 54.2661 95.0148V103.326C54.2673 103.332 54.2673 103.338 54.2661 103.344C54.2564 103.379 54.2523 103.415 54.2542 103.451C54.2071 103.448 54.1598 103.448 54.1127 103.451H54.024C54.0279 103.41 54.0232 103.369 54.0104 103.329V94.6657L54.3429 94.3378L76.3755 73.1611C76.4074 73.1306 76.4327 73.0943 76.4499 73.0544C76.4672 73.0144 76.4761 72.9716 76.476 72.9283C76.4757 72.8415 76.4395 72.7584 76.3755 72.6972L67.8748 64.5236L69.7808 62.6924V62.6924ZM69.7808 62.2285L67.394 64.5236L76.1351 72.9283L54.1025 94.1198L53.6694 94.5362V103.333C53.669 103.363 53.673 103.394 53.6813 103.423C53.3717 103.52 53.1078 103.72 52.9365 103.986C52.7652 104.253 52.6976 104.569 52.7455 104.879C52.7934 105.188 52.9538 105.472 53.1983 105.679C53.4428 105.886 53.7556 106.003 54.0813 106.009C54.407 106.016 54.7246 105.911 54.9778 105.714C55.2309 105.517 55.4034 105.24 55.4645 104.932C55.5257 104.625 55.4716 104.306 55.3118 104.033C55.1521 103.76 54.897 103.55 54.5918 103.441C54.6021 103.406 54.6073 103.369 54.6071 103.333V95.0214L77.5143 72.989L78.4759 73.9136L77.8127 74.5463L76.164 76.1217L58.1943 93.3001C58.1206 93.3714 58.0779 93.4669 58.0749 93.5673C57.7149 93.5843 57.3762 93.7363 57.1314 93.9907C56.8867 94.2451 56.7553 94.5816 56.7656 94.928C56.7758 95.2744 56.9269 95.6032 57.1863 95.8437C57.4458 96.0843 57.7929 96.2175 58.1533 96.2148C58.4256 96.2151 58.6919 96.1379 58.9187 95.9929C59.1454 95.8479 59.3225 95.6417 59.4275 95.4001C59.5325 95.1585 59.5608 94.8925 59.5088 94.6354C59.4568 94.3784 59.3269 94.142 59.1354 93.9558C59.0753 93.8944 59.0084 93.8394 58.9359 93.7919L78.4469 75.1512L78.4759 75.1791L79.9012 73.8086L80.8628 74.7332L78.5612 76.9463L78.5373 76.9233L61.125 93.6657V100.121C61.1242 100.134 61.1242 100.148 61.125 100.161C60.8226 100.273 60.5711 100.484 60.4147 100.757C60.2583 101.03 60.207 101.347 60.2699 101.653C60.3328 101.959 60.5058 102.234 60.7585 102.429C61.0112 102.624 61.3273 102.727 61.6514 102.721C61.9755 102.714 62.2867 102.597 62.5303 102.392C62.7738 102.186 62.9342 101.904 62.9831 101.596C63.032 101.288 62.9664 100.973 62.7977 100.707C62.6291 100.441 62.3682 100.24 62.061 100.141V94.2394L82.5677 74.5234L69.7808 62.2285V62.2285ZM58.1533 95.7952C58.0289 95.7957 57.9056 95.7721 57.7908 95.7259C57.676 95.6798 57.572 95.6119 57.485 95.5263C57.3317 95.3773 57.2368 95.1819 57.2164 94.9732C57.1961 94.7645 57.2516 94.5555 57.3735 94.3817C57.4954 94.2079 57.6762 94.0801 57.885 94.0201C58.0939 93.96 58.3179 93.9714 58.519 94.0523C58.7201 94.1332 58.8858 94.2786 58.988 94.4638C59.0902 94.6489 59.1224 94.8624 59.0793 95.0679C59.0362 95.2734 58.9204 95.4581 58.7516 95.5907C58.5827 95.7233 58.3713 95.7955 58.1533 95.7952V95.7952ZM61.616 102.302C61.3722 102.312 61.1338 102.231 60.951 102.075C60.7683 101.92 60.6555 101.702 60.6365 101.468C60.6175 101.234 60.6937 101.002 60.8491 100.821C61.0045 100.64 61.2269 100.525 61.4694 100.498V100.498C61.5173 100.49 61.5657 100.487 61.6143 100.487C61.6518 100.484 61.6894 100.484 61.7268 100.487V100.487C61.965 100.515 62.1831 100.629 62.3367 100.806C62.4903 100.983 62.5677 101.21 62.5531 101.44C62.5385 101.67 62.4331 101.887 62.2583 102.045C62.0834 102.203 61.8525 102.29 61.6126 102.29L61.616 102.302ZM54.1025 105.58C53.9163 105.58 53.7344 105.527 53.5796 105.428C53.4248 105.328 53.3042 105.187 53.233 105.022C53.1618 104.856 53.1431 104.674 53.1794 104.499C53.2157 104.323 53.3054 104.162 53.437 104.035C53.5686 103.909 53.7363 103.823 53.9189 103.788C54.1014 103.753 54.2906 103.771 54.4626 103.839C54.6346 103.908 54.7816 104.024 54.885 104.173C54.9884 104.321 55.0436 104.496 55.0436 104.675C55.0436 104.915 54.9444 105.145 54.7679 105.315C54.5914 105.485 54.3521 105.58 54.1025 105.58V105.58Z" fill="#FF680A"/>
<path d="M54.2502 8.5475C54.2482 8.58286 54.2523 8.61829 54.2621 8.65242C54.2631 8.65839 54.2631 8.66447 54.2621 8.67045V16.9818C54.2618 17.0249 54.2704 17.0677 54.2874 17.1077C54.3044 17.1476 54.3294 17.1839 54.361 17.2146L77.2716 39.2437C77.3035 39.2741 77.3413 39.2981 77.3828 39.3145C77.4244 39.3308 77.4688 39.339 77.5137 39.3388C77.6038 39.3389 77.6902 39.3047 77.7541 39.2437L78.7157 38.3191C78.7476 38.2886 78.7729 38.2524 78.7902 38.2124C78.8074 38.1725 78.8163 38.1296 78.8163 38.0864C78.8159 37.9995 78.7797 37.9164 78.7157 37.8552L78.0576 37.2208L76.4089 35.6454L58.434 18.467C58.422 18.4544 58.4148 18.4382 58.4136 18.4211C58.4136 18.387 58.4072 18.3531 58.3948 18.3211C58.4651 18.3089 58.5341 18.2908 58.6011 18.267C58.6146 18.3295 58.6472 18.3866 58.6949 18.4309L78.2059 37.0815C78.2454 37.1195 78.294 37.1477 78.3474 37.1634L79.6585 38.4241C79.6904 38.4544 79.7281 38.4785 79.7697 38.4948C79.8112 38.5111 79.8557 38.5194 79.9006 38.5191C79.9906 38.5192 80.0771 38.485 80.141 38.4241L81.1026 37.4995C81.1343 37.469 81.1594 37.4329 81.1766 37.3931C81.1937 37.3533 81.2026 37.3106 81.2026 37.2675C81.2026 37.2244 81.1937 37.1818 81.1766 37.142C81.1594 37.1022 81.1343 37.066 81.1026 37.0356L78.8009 34.8225C78.7656 34.787 78.7217 34.7605 78.6731 34.7454L61.4654 18.1982V11.872C61.4671 11.8573 61.4671 11.8425 61.4654 11.8278C61.5176 11.8303 61.57 11.8303 61.6222 11.8278C61.6552 11.8295 61.6882 11.8295 61.7211 11.8278V17.7605C61.7208 17.8036 61.7294 17.8464 61.7464 17.8863C61.7634 17.9263 61.7884 17.9626 61.82 17.9932L82.0846 37.4765L69.7802 49.3075L67.8741 47.4764L76.3748 39.3044C76.4067 39.2739 76.4321 39.2376 76.4493 39.1976C76.4666 39.1577 76.4755 39.1149 76.4754 39.0716C76.475 38.9848 76.4389 38.9017 76.3748 38.8404L54.3422 17.6555L54.0098 17.3277V8.66881C54.02 8.63196 54.0235 8.59369 54.02 8.5557H54.1138C54.1609 8.55815 54.2081 8.55815 54.2553 8.5557L54.2502 8.5475ZM54.1138 6C53.786 6.00003 53.469 6.11244 53.2196 6.31703C52.9703 6.52162 52.805 6.80499 52.7535 7.11624C52.7019 7.42748 52.7675 7.7462 52.9384 8.01515C53.1093 8.28409 53.3743 8.48563 53.6858 8.58356C53.6775 8.61294 53.6735 8.64329 53.6739 8.67373V17.4703L54.1069 17.8867L76.1344 39.0716L67.3933 47.4764L69.7802 49.7714L82.5671 37.4765L62.0621 17.7605V11.8589C62.3693 11.7594 62.6301 11.559 62.7988 11.2928C62.9675 11.0267 63.0331 10.7118 62.9842 10.4037C62.9353 10.0956 62.7749 9.81397 62.5313 9.60832C62.2878 9.40267 61.9766 9.28619 61.6525 9.27938C61.3284 9.27257 61.0122 9.37586 60.7595 9.57108C60.5069 9.7663 60.3339 10.0409 60.271 10.3467C60.2081 10.6525 60.2594 10.9697 60.4158 11.2427C60.5722 11.5157 60.8237 11.727 61.1261 11.8392C61.1252 11.8524 61.1252 11.8655 61.1261 11.8786V18.3342L78.5367 35.0766L78.5605 35.0536L80.8622 37.2667L79.9006 38.1913L78.4753 36.8208L78.4463 36.8487L58.9353 18.1998C59.0077 18.1523 59.0746 18.0973 59.1347 18.0359C59.3248 17.8485 59.4528 17.6112 59.5027 17.3538C59.5526 17.0965 59.5221 16.8308 59.415 16.5901C59.308 16.3495 59.1292 16.1447 58.9012 16.0017C58.6732 15.8587 58.4063 15.7839 58.1341 15.7866C57.8619 15.7893 57.5966 15.8696 57.3718 16.0171C57.147 16.1647 56.9727 16.373 56.8709 16.6158C56.7691 16.8585 56.7444 17.1248 56.7998 17.3811C56.8553 17.6373 56.9885 17.872 57.1826 18.0555C57.4203 18.2823 57.7365 18.4171 58.0709 18.4342C58.0739 18.5346 58.1166 18.6302 58.1902 18.7014L76.1651 35.8815L77.8138 37.4569L78.4719 38.0896L77.5103 39.0142L54.6065 16.9851V8.67373C54.6067 8.63715 54.6015 8.60073 54.5911 8.56553C54.8933 8.4571 55.1464 8.25015 55.3062 7.98074C55.4659 7.71134 55.5223 7.39657 55.4655 7.09128C55.4087 6.786 55.2423 6.50956 54.9953 6.31014C54.7483 6.11072 54.4363 6.00096 54.1138 6ZM54.1138 8.22947C53.9276 8.22947 53.7457 8.1764 53.5909 8.07697C53.4362 7.97754 53.3155 7.83621 53.2443 7.67086C53.1731 7.50551 53.1544 7.32357 53.1907 7.14803C53.2271 6.9725 53.3167 6.81126 53.4483 6.68471C53.5799 6.55815 53.7476 6.47197 53.9302 6.43705C54.1127 6.40214 54.302 6.42006 54.4739 6.48855C54.6459 6.55704 54.7929 6.67302 54.8963 6.82183C54.9997 6.97064 55.0549 7.1456 55.0549 7.32457C55.0549 7.56456 54.9557 7.79473 54.7792 7.96443C54.6027 8.13413 54.3634 8.22947 54.1138 8.22947V8.22947ZM61.4756 11.4983C61.2401 11.4665 61.0258 11.3501 60.8761 11.1724C60.7264 10.9947 60.6523 10.769 60.6689 10.5409C60.6854 10.3128 60.7914 10.0992 60.9653 9.9432C61.1392 9.78723 61.3682 9.70049 61.606 9.70049C61.8438 9.70049 62.0728 9.78723 62.2467 9.9432C62.4207 10.0992 62.5266 10.3128 62.5431 10.5409C62.5597 10.769 62.4856 10.9947 62.3359 11.1724C62.1862 11.3501 61.972 11.4665 61.7364 11.4983V11.4983C61.699 11.5007 61.6614 11.5007 61.6239 11.4983C61.5753 11.4986 61.5269 11.4947 61.479 11.4868L61.4756 11.4983ZM58.1544 18.0146C57.937 18.0144 57.7263 17.9419 57.5581 17.8092C57.39 17.6766 57.2748 17.4921 57.2322 17.2871C57.1896 17.082 57.2221 16.8691 57.3243 16.6845C57.4264 16.4999 57.5919 16.3551 57.7926 16.2745C57.9933 16.194 58.2168 16.1828 58.4251 16.2428C58.6334 16.3028 58.8137 16.4303 58.9353 16.6037C59.0569 16.7771 59.1123 16.9856 59.0921 17.1937C59.0719 17.4019 58.9773 17.597 58.8244 17.7457C58.7369 17.831 58.6326 17.8987 58.5175 17.9449C58.4025 17.991 58.2791 18.0147 58.1544 18.0146V18.0146Z" fill="#FF680A"/>
</g>
<path d="M157 33.625H172.375V39H167.875V75.625H172.375V81H157V75.625H161.75V58.5938H134.344V75.625H139.094V81H123.719V75.625H128.219V39H123.719V33.625H139.094V39H134.344V53.3438H161.75V39H157V33.625ZM211.875 75.625H215.812L212.062 64.875H193.844L190.188 75.625H195.062V81H179.688V75.625H183.812L198.562 33.625H207.781L222.5 75.625H227.25V81H211.875V75.625ZM195.625 59.6875H210.25L202.875 38.5L195.625 59.6875ZM268.156 46.125C266.76 43.75 264.906 41.8854 262.594 40.5312C260.302 39.1771 257.74 38.5 254.906 38.5C252.49 38.5 250.281 39.0104 248.281 40.0312C246.281 41.0521 244.562 42.4271 243.125 44.1562C241.708 45.8646 240.604 47.8542 239.812 50.125C239.021 52.375 238.625 54.75 238.625 57.25C238.625 60.2083 239.062 62.8333 239.938 65.125C240.812 67.3958 241.948 69.2917 243.344 70.8125C244.76 72.3125 246.438 73.5729 248.375 74.5938C250.312 75.5938 252.49 76.0938 254.906 76.0938C258.198 76.0938 261.062 75.3021 263.5 73.7188C265.938 72.1146 268.021 69.4896 269.75 65.8438L275.25 68.4375C274.458 70.6875 273.115 72.8646 271.219 74.9688C269.323 77.0521 266.979 78.7396 264.188 80.0312C261.417 81.3021 258.344 81.9375 254.969 81.9375C251.74 81.9375 248.771 81.3333 246.062 80.125C243.354 78.8958 240.938 77.1562 238.812 74.9062C236.708 72.6562 235.094 69.9896 233.969 66.9062C232.865 63.8229 232.312 60.6042 232.312 57.25C232.312 53.875 232.865 50.6875 233.969 47.6875C235.094 44.6875 236.656 42.0833 238.656 39.875C240.677 37.6458 243.073 35.8958 245.844 34.625C248.635 33.3333 251.656 32.6875 254.906 32.6875C257.802 32.6875 260.302 33.1042 262.406 33.9375C264.51 34.75 266.292 35.7292 267.75 36.875C269.229 38 270.5 39.2292 271.562 40.5625H274.875V46.125H268.156ZM315.594 39.0312V33.625H326.469V39.0312H322.75L302 56.5L321.406 75.625H326.469V81H313.719V75.625L294.906 56.8125L315.594 39.0312ZM284.281 33.625H299.656V39.0312H294.844V75.625H299.594V81H284.219V75.625H288.719V39.0312H284.281V33.625Z" fill="#FCFCFC"/>
<path d="M49.9433 136.288C49.9433 138.101 50.2419 139.515 50.8393 140.528C51.4366 141.541 52.4713 142.048 53.9433 142.048C55.4153 142.048 56.4499 141.541 57.0473 140.528C57.6553 139.515 57.9593 138.101 57.9593 136.288C57.9593 134.496 57.6553 133.093 57.0473 132.08C56.4499 131.067 55.4153 130.56 53.9433 130.56C52.4713 130.56 51.4366 131.067 50.8393 132.08C50.2419 133.083 49.9433 134.485 49.9433 136.288ZM56.5193 136.288C56.5193 137.216 56.4499 137.995 56.3113 138.624C56.1833 139.243 55.9326 139.739 55.5593 140.112C55.1859 140.485 54.6473 140.672 53.9433 140.672C53.2499 140.672 52.7166 140.485 52.3433 140.112C51.9699 139.739 51.7139 139.243 51.5753 138.624C51.4473 137.995 51.3832 137.216 51.3832 136.288C51.3832 135.371 51.4473 134.603 51.5753 133.984C51.7139 133.365 51.9699 132.875 52.3433 132.512C52.7166 132.139 53.2499 131.952 53.9433 131.952C54.6473 131.952 55.1859 132.139 55.5593 132.512C55.9326 132.875 56.1833 133.365 56.3113 133.984C56.4499 134.603 56.5193 135.371 56.5193 136.288ZM59.8554 139.408V138.192L65.6474 130.64H67.2154V138.144H68.8794V139.408H67.2154V142H65.7434V139.408H59.8554ZM65.8394 132.416L61.3914 138.144H65.8394V132.416ZM80.3944 135.52V136.752H73.9944V135.52H80.3944ZM87.9589 136.288C87.9589 138.101 88.2575 139.515 88.8549 140.528C89.4522 141.541 90.4869 142.048 91.9589 142.048C93.4309 142.048 94.4655 141.541 95.0629 140.528C95.6709 139.515 95.9749 138.101 95.9749 136.288C95.9749 134.496 95.6709 133.093 95.0629 132.08C94.4655 131.067 93.4309 130.56 91.9589 130.56C90.4869 130.56 89.4522 131.067 88.8549 132.08C88.2575 133.083 87.9589 134.485 87.9589 136.288ZM94.5349 136.288C94.5349 137.216 94.4655 137.995 94.3269 138.624C94.1989 139.243 93.9482 139.739 93.5749 140.112C93.2015 140.485 92.6629 140.672 91.9589 140.672C91.2655 140.672 90.7322 140.485 90.3589 140.112C89.9855 139.739 89.7295 139.243 89.5909 138.624C89.4629 137.995 89.3989 137.216 89.3989 136.288C89.3989 135.371 89.4629 134.603 89.5909 133.984C89.7295 133.365 89.9855 132.875 90.3589 132.512C90.7322 132.139 91.2655 131.952 91.9589 131.952C92.6629 131.952 93.2015 132.139 93.5749 132.512C93.9482 132.875 94.1989 133.365 94.3269 133.984C94.4655 134.603 94.5349 135.371 94.5349 136.288ZM104.991 131.776L100.719 142H99.183L103.519 131.92H97.599V130.656H104.991V131.776ZM120.358 142H118.902L113.046 133.088V142H111.59V130.72H113.046L118.902 139.648V130.72H120.358V142ZM127.183 133.104C128.026 133.104 128.778 133.285 129.439 133.648C130.111 134.011 130.634 134.533 131.007 135.216C131.391 135.899 131.583 136.699 131.583 137.616C131.583 138.533 131.391 139.333 131.007 140.016C130.634 140.688 130.111 141.205 129.439 141.568C128.778 141.931 128.026 142.112 127.183 142.112C126.341 142.112 125.583 141.931 124.911 141.568C124.25 141.205 123.727 140.688 123.343 140.016C122.959 139.333 122.767 138.533 122.767 137.616C122.767 136.699 122.959 135.899 123.343 135.216C123.727 134.533 124.25 134.011 124.911 133.648C125.583 133.285 126.341 133.104 127.183 133.104ZM127.183 134.384C126.661 134.384 126.175 134.501 125.727 134.736C125.29 134.971 124.933 135.333 124.655 135.824C124.389 136.304 124.255 136.901 124.255 137.616C124.255 138.32 124.389 138.917 124.655 139.408C124.933 139.888 125.29 140.245 125.727 140.48C126.175 140.715 126.661 140.832 127.183 140.832C127.706 140.832 128.186 140.715 128.623 140.48C129.071 140.245 129.429 139.888 129.695 139.408C129.973 138.917 130.111 138.32 130.111 137.616C130.111 136.901 129.973 136.304 129.695 135.824C129.429 135.333 129.071 134.971 128.623 134.736C128.186 134.501 127.706 134.384 127.183 134.384ZM137.389 140.448L140.109 133.216H141.677L138.237 142H136.509L133.069 133.216H134.637L137.389 140.448ZM151.686 137.12C151.686 137.429 151.664 137.696 151.622 137.92H144.598C144.63 138.923 144.912 139.675 145.446 140.176C145.99 140.677 146.651 140.928 147.43 140.928C148.134 140.928 148.72 140.752 149.19 140.4C149.67 140.037 149.963 139.557 150.07 138.96H151.622C151.515 139.568 151.275 140.112 150.902 140.592C150.539 141.072 150.064 141.445 149.478 141.712C148.891 141.979 148.23 142.112 147.494 142.112C146.651 142.112 145.904 141.931 145.254 141.568C144.603 141.205 144.091 140.688 143.718 140.016C143.355 139.333 143.174 138.533 143.174 137.616C143.174 136.699 143.355 135.899 143.718 135.216C144.091 134.533 144.603 134.011 145.254 133.648C145.904 133.285 146.651 133.104 147.494 133.104C148.347 133.104 149.088 133.285 149.718 133.648C150.358 134.011 150.843 134.496 151.174 135.104C151.515 135.712 151.686 136.384 151.686 137.12ZM150.214 137.216C150.246 136.565 150.139 136.021 149.894 135.584C149.648 135.147 149.312 134.821 148.886 134.608C148.459 134.395 147.995 134.288 147.494 134.288C146.694 134.288 146.022 134.539 145.478 135.04C144.934 135.531 144.64 136.256 144.598 137.216H150.214ZM164.89 133.072C165.914 133.072 166.735 133.403 167.354 134.064C167.983 134.715 168.298 135.659 168.298 136.896V142H166.842V137.024C166.842 136.16 166.629 135.499 166.202 135.04C165.786 134.581 165.21 134.352 164.474 134.352C163.706 134.352 163.087 134.608 162.618 135.12C162.159 135.621 161.93 136.363 161.93 137.344V142H160.474V137.024C160.474 136.16 160.261 135.499 159.834 135.04C159.407 134.581 158.831 134.352 158.106 134.352C157.327 134.352 156.703 134.608 156.234 135.12C155.775 135.621 155.546 136.363 155.546 137.344V142H154.09V133.216H155.546V135.216C155.759 134.523 156.138 133.995 156.682 133.632C157.237 133.259 157.871 133.072 158.586 133.072C159.333 133.072 159.978 133.264 160.522 133.648C161.077 134.021 161.471 134.576 161.706 135.312C161.951 134.597 162.362 134.048 162.938 133.664C163.514 133.269 164.165 133.072 164.89 133.072ZM179.139 137.12C179.139 137.429 179.117 137.696 179.075 137.92H172.051C172.083 138.923 172.365 139.675 172.899 140.176C173.443 140.677 174.104 140.928 174.883 140.928C175.587 140.928 176.173 140.752 176.643 140.4C177.123 140.037 177.416 139.557 177.523 138.96H179.075C178.968 139.568 178.728 140.112 178.355 140.592C177.992 141.072 177.517 141.445 176.931 141.712C176.344 141.979 175.683 142.112 174.947 142.112C174.104 142.112 173.357 141.931 172.707 141.568C172.056 141.205 171.544 140.688 171.171 140.016C170.808 139.333 170.627 138.533 170.627 137.616C170.627 136.699 170.808 135.899 171.171 135.216C171.544 134.533 172.056 134.011 172.707 133.648C173.357 133.285 174.104 133.104 174.947 133.104C175.8 133.104 176.541 133.285 177.171 133.648C177.811 134.011 178.296 134.496 178.627 135.104C178.968 135.712 179.139 136.384 179.139 137.12ZM177.667 137.216C177.699 136.565 177.592 136.021 177.347 135.584C177.101 135.147 176.765 134.821 176.339 134.608C175.912 134.395 175.448 134.288 174.947 134.288C174.147 134.288 173.475 134.539 172.931 135.04C172.387 135.531 172.093 136.256 172.051 137.216H177.667ZM186.391 133.104C187.17 133.104 187.863 133.285 188.471 133.648C189.079 134.011 189.554 134.533 189.895 135.216C190.247 135.899 190.423 136.699 190.423 137.616C190.423 138.533 190.247 139.333 189.895 140.016C189.554 140.688 189.079 141.205 188.471 141.568C187.863 141.931 187.17 142.112 186.391 142.112C185.538 142.112 184.812 141.899 184.215 141.472C183.628 141.035 183.223 140.464 182.999 139.76V142H181.543V130.16H182.999V135.456C183.223 134.752 183.628 134.187 184.215 133.76C184.812 133.323 185.538 133.104 186.391 133.104ZM185.975 134.4C185.41 134.4 184.898 134.533 184.439 134.8C183.98 135.056 183.623 135.429 183.367 135.92C183.111 136.411 182.983 136.976 182.983 137.616C182.983 138.256 183.111 138.821 183.367 139.312C183.623 139.792 183.98 140.165 184.439 140.432C184.898 140.699 185.41 140.832 185.975 140.832C186.882 140.832 187.602 140.549 188.135 139.984C188.679 139.408 188.951 138.619 188.951 137.616C188.951 136.613 188.679 135.829 188.135 135.264C187.602 134.688 186.882 134.4 185.975 134.4ZM200.904 137.12C200.904 137.429 200.883 137.696 200.84 137.92H193.816C193.848 138.923 194.131 139.675 194.664 140.176C195.208 140.677 195.87 140.928 196.648 140.928C197.352 140.928 197.939 140.752 198.408 140.4C198.888 140.037 199.182 139.557 199.288 138.96H200.84C200.734 139.568 200.494 140.112 200.12 140.592C199.758 141.072 199.283 141.445 198.696 141.712C198.11 141.979 197.448 142.112 196.712 142.112C195.87 142.112 195.123 141.931 194.472 141.568C193.822 141.205 193.31 140.688 192.936 140.016C192.574 139.333 192.392 138.533 192.392 137.616C192.392 136.699 192.574 135.899 192.936 135.216C193.31 134.533 193.822 134.011 194.472 133.648C195.123 133.285 195.87 133.104 196.712 133.104C197.566 133.104 198.307 133.285 198.936 133.648C199.576 134.011 200.062 134.496 200.392 135.104C200.734 135.712 200.904 136.384 200.904 137.12ZM199.432 137.216C199.464 136.565 199.358 136.021 199.112 135.584C198.867 135.147 198.531 134.821 198.104 134.608C197.678 134.395 197.214 134.288 196.712 134.288C195.912 134.288 195.24 134.539 194.696 135.04C194.152 135.531 193.859 136.256 193.816 137.216H199.432ZM204.765 134.992C205.053 134.384 205.474 133.915 206.029 133.584C206.583 133.243 207.245 133.072 208.013 133.072V134.656H207.565C206.743 134.656 206.071 134.869 205.549 135.296C205.026 135.712 204.765 136.405 204.765 137.376V142H203.309V133.216H204.765V134.992ZM213.906 140.88C215.72 139.664 217.17 138.459 218.258 137.264C219.346 136.059 219.89 134.939 219.89 133.904C219.89 133.264 219.725 132.752 219.394 132.368C219.074 131.973 218.552 131.776 217.826 131.776C217.08 131.776 216.514 132.016 216.13 132.496C215.746 132.965 215.533 133.616 215.49 134.448H214.05C214.125 133.189 214.514 132.224 215.218 131.552C215.922 130.869 216.829 130.528 217.938 130.528C218.994 130.528 219.832 130.811 220.45 131.376C221.069 131.941 221.378 132.741 221.378 133.776C221.378 134.629 221.101 135.499 220.546 136.384C220.002 137.259 219.314 138.075 218.482 138.832C217.661 139.579 216.813 140.213 215.938 140.736H221.666V141.936H213.906V140.88ZM223.725 136.288C223.725 138.101 224.023 139.515 224.621 140.528C225.218 141.541 226.253 142.048 227.725 142.048C229.197 142.048 230.231 141.541 230.829 140.528C231.437 139.515 231.741 138.101 231.741 136.288C231.741 134.496 231.437 133.093 230.829 132.08C230.231 131.067 229.197 130.56 227.725 130.56C226.253 130.56 225.218 131.067 224.621 132.08C224.023 133.083 223.725 134.485 223.725 136.288ZM230.301 136.288C230.301 137.216 230.231 137.995 230.093 138.624C229.965 139.243 229.714 139.739 229.341 140.112C228.967 140.485 228.429 140.672 227.725 140.672C227.031 140.672 226.498 140.485 226.125 140.112C225.751 139.739 225.495 139.243 225.357 138.624C225.229 137.995 225.164 137.216 225.164 136.288C225.164 135.371 225.229 134.603 225.357 133.984C225.495 133.365 225.751 132.875 226.125 132.512C226.498 132.139 227.031 131.952 227.725 131.952C228.429 131.952 228.967 132.139 229.341 132.512C229.714 132.875 229.965 133.365 230.093 133.984C230.231 134.603 230.301 135.371 230.301 136.288ZM233.349 132.08V130.72H236.581V142H235.045V132.08H233.349ZM240.794 138.832C240.89 139.504 241.125 140.021 241.498 140.384C241.872 140.747 242.384 140.928 243.034 140.928C243.93 140.928 244.608 140.581 245.066 139.888C245.525 139.195 245.754 138.096 245.754 136.592C245.754 136.304 245.749 136.085 245.738 135.936C245.589 136.576 245.226 137.088 244.65 137.472C244.074 137.856 243.397 138.048 242.618 138.048C241.498 138.048 240.618 137.712 239.978 137.04C239.338 136.368 239.018 135.429 239.018 134.224C239.018 133.52 239.157 132.88 239.434 132.304C239.712 131.728 240.133 131.275 240.698 130.944C241.274 130.603 241.984 130.432 242.826 130.432C244.448 130.432 245.557 130.933 246.154 131.936C246.762 132.928 247.066 134.293 247.066 136.032C247.066 138.016 246.757 139.531 246.138 140.576C245.52 141.611 244.485 142.128 243.034 142.128C241.957 142.128 241.109 141.824 240.49 141.216C239.882 140.597 239.525 139.803 239.418 138.832H240.794ZM245.594 134.448C245.594 133.68 245.365 133.029 244.906 132.496C244.458 131.963 243.781 131.696 242.874 131.696C242.128 131.696 241.53 131.92 241.082 132.368C240.634 132.816 240.41 133.44 240.41 134.24C240.41 135.093 240.634 135.749 241.082 136.208C241.53 136.667 242.144 136.896 242.922 136.896C243.37 136.896 243.797 136.805 244.202 136.624C244.618 136.443 244.954 136.165 245.21 135.792C245.466 135.419 245.594 134.971 245.594 134.448Z" fill="#FCFCFC"/>
<path d="M294.367 130.512C295.434 130.512 296.399 130.763 297.263 131.264C298.138 131.755 298.826 132.443 299.327 133.328C299.828 134.203 300.079 135.195 300.079 136.304C300.079 137.413 299.823 138.411 299.311 139.296C298.81 140.181 298.122 140.875 297.247 141.376C296.383 141.867 295.423 142.112 294.367 142.112C293.311 142.112 292.346 141.867 291.471 141.376C290.607 140.875 289.919 140.181 289.407 139.296C288.906 138.411 288.655 137.413 288.655 136.304C288.655 135.195 288.906 134.203 289.407 133.328C289.919 132.443 290.607 131.755 291.471 131.264C292.346 130.763 293.311 130.512 294.367 130.512ZM294.367 133.056C293.471 133.056 292.756 133.349 292.223 133.936C291.7 134.512 291.439 135.301 291.439 136.304C291.439 137.296 291.7 138.085 292.223 138.672C292.756 139.259 293.471 139.552 294.367 139.552C295.252 139.552 295.962 139.259 296.495 138.672C297.028 138.085 297.295 137.296 297.295 136.304C297.295 135.312 297.028 134.523 296.495 133.936C295.972 133.349 295.263 133.056 294.367 133.056ZM307.78 132.976C308.804 132.976 309.615 133.317 310.212 134C310.82 134.683 311.124 135.621 311.124 136.816V142H308.388V137.136C308.388 136.539 308.228 136.075 307.908 135.744C307.599 135.403 307.183 135.232 306.66 135.232C306.105 135.232 305.663 135.408 305.332 135.76C305.012 136.112 304.852 136.613 304.852 137.264V142H302.116V133.072H304.852V134.704C305.108 134.171 305.487 133.749 305.988 133.44C306.5 133.131 307.097 132.976 307.78 132.976ZM316.164 130.16V142H313.428V130.16H316.164ZM318.297 130.56C318.297 130.144 318.447 129.803 318.745 129.536C319.044 129.259 319.439 129.12 319.929 129.12C320.42 129.12 320.815 129.259 321.113 129.536C321.412 129.803 321.561 130.144 321.561 130.56C321.561 130.965 321.412 131.307 321.113 131.584C320.815 131.851 320.42 131.984 319.929 131.984C319.439 131.984 319.044 131.851 318.745 131.584C318.447 131.307 318.297 130.965 318.297 130.56ZM321.289 133.072V142H318.553V133.072H321.289ZM329.342 132.976C330.366 132.976 331.177 133.317 331.774 134C332.382 134.683 332.686 135.621 332.686 136.816V142H329.95V137.136C329.95 136.539 329.79 136.075 329.47 135.744C329.161 135.403 328.745 135.232 328.222 135.232C327.668 135.232 327.225 135.408 326.894 135.76C326.574 136.112 326.414 136.613 326.414 137.264V142H323.678V133.072H326.414V134.704C326.67 134.171 327.049 133.749 327.55 133.44C328.062 133.131 328.66 132.976 329.342 132.976ZM343.471 137.296C343.471 137.52 343.444 137.765 343.391 138.032H337.199C337.231 138.704 337.402 139.189 337.711 139.488C338.02 139.776 338.415 139.92 338.895 139.92C339.3 139.92 339.636 139.819 339.903 139.616C340.17 139.413 340.346 139.152 340.431 138.832H343.327C343.21 139.461 342.954 140.027 342.559 140.528C342.164 141.019 341.663 141.408 341.055 141.696C340.447 141.973 339.77 142.112 339.023 142.112C338.148 142.112 337.37 141.931 336.687 141.568C336.015 141.195 335.487 140.661 335.103 139.968C334.719 139.275 334.527 138.464 334.527 137.536C334.527 136.597 334.714 135.787 335.087 135.104C335.471 134.411 336.004 133.883 336.687 133.52C337.37 133.147 338.148 132.96 339.023 132.96C339.908 132.96 340.687 133.141 341.359 133.504C342.031 133.867 342.548 134.379 342.911 135.04C343.284 135.691 343.471 136.443 343.471 137.296ZM340.703 136.88C340.714 136.293 340.554 135.856 340.223 135.568C339.903 135.269 339.503 135.12 339.023 135.12C338.522 135.12 338.106 135.269 337.775 135.568C337.444 135.867 337.258 136.304 337.215 136.88H340.703Z" fill="#E47878"/>
<rect x="0.5" y="0.5" width="364" height="147" stroke="#1E1E1E"/>
<defs>
<clipPath id="clip0">
<rect width="100" height="100" fill="white" transform="translate(2 6)"/>
</clipPath>
</defs>
</svg>
